<svg xmlns="http://www.w3.org/2000/svg" xmlns:xlink="http://www.w3.org/1999/xlink" data-name="Layer 1" viewBox="0 0 211.426 133.271"><defs><linearGradient id="a" x1="156.64" x2="156.64" y1="781.16" y2="445.64" gradientUnits="userSpaceOnUse"><stop offset="0" stop-color="#bb75ff"/><stop offset="1" stop-color="#00f9ff"/></linearGradient><linearGradient id="b" x1="923.36" x2="923.36" y1="781.16" y2="466.51" gradientUnits="userSpaceOnUse"><stop offset="0" stop-color="#5c25fb"/><stop offset="1" stop-color="#e531ff"/></linearGradient><linearGradient xlink:href="#a" id="e" x1="541.24" x2="541.24" y1="933.05" y2="261.6" gradientTransform="translate(-6.251 -45.324) scale(.20734)"/><linearGradient xlink:href="#b" id="f" x1="539.16" x2="539.16" y1="924.4" y2="307.26" gradientTransform="translate(-6.251 -45.324) scale(.20734)"/><linearGradient xlink:href="#a" id="c" x1="156.64" x2="156.64" y1="781.16" y2="445.64" gradientTransform="translate(-6.251 -45.324) scale(.20734)" gradientUnits="userSpaceOnUse"/><linearGradient xlink:href="#b" id="d" x1="923.36" x2="923.36" y1="781.16" y2="466.51" gradientTransform="translate(-6.251 -45.324) scale(.20734)" gradientUnits="userSpaceOnUse"/></defs><path fill="url(#c)" d="M29.65 52.955H0a11.404 11.404 0 0 1 11.404-11.404H29.65q22.807 0 22.807 15.284 0 15.513-22.807 15.513h-6.842q-9.123 0-9.123 3.877v4.1h38.772a11.404 11.404 0 0 1-11.403 11.403H0V76.221q0-15.283 22.808-15.285h6.842q9.123 0 9.123-4.106 0-3.875-9.123-3.875z"/><path fill="url(#d)" d="M181.776 41.551h18.246a11.404 11.404 0 0 1 11.404 11.404h-29.65q-9.123 0-9.123 3.877 0 4.106 9.123 4.106h6.842q22.808 0 22.808 15.285 0 15.511-22.808 15.511h-18.246a11.404 11.404 0 0 1-11.404-11.404h29.65q9.123 0 9.123-4.105 0-3.88-9.123-3.877h-6.842q-22.808 0-22.808-15.513-.002-15.284 22.808-15.284z"/><path fill="url(#e)" d="M167.641 2.986c-10.367-10.147-36.869 8.379-61.951 31.628-9.41-8.398-17.746-15.171-23.28-19.04C53.112-6.09 47.96-1.014 41.309 6.22c11.818.58 33.508 13.047 57.848 34.578a490.57 490.57 0 0 0-12.408 12.45c-3.524-4.472-6.525-8.857-8.739-12.927-3.757-1.787-6.469-2.14-7.506-.504 0 0-4.876 3.212 9.231 20.873-11.04 11.962-20.077 22.872-24.796 29.62-21.663 29.298-16.587 34.45-9.353 41.102.622-12.774 15.15-37.091 39.996-63.82 2.74 3.073 5.93 6.474 9.656 10.243q1.63 1.648 3.253 3.247c-6.469 5.654-12.963 10.448-18.804 13.627-1.787 3.757-2.14 6.469-.503 7.505 0 0 3.89 5.91 26.657-14.099 26.747 24.881 51.087 39.461 63.888 40.158 10.89-11.13-11.235-40.821-36.784-67.413 21.549-24.331 34.052-46.034 34.696-57.875Zm-33.605 29.109c1.625 1.036 1.275 3.757-.513 7.514-2.214 4.072-5.158 8.528-8.602 13.11a499.57 499.57 0 0 0-11.819-11.346c17.712-14.16 20.934-9.278 20.934-9.278zM92.62 60.239q1.674-1.698 3.394-3.404c3.747-3.704 7.129-6.88 10.19-9.609q4.797 4.504 9.682 9.43c1.13 1.143 2.206 2.25 3.243 3.318a199.955 199.955 0 0 1-12.973 13.993A192.237 192.237 0 0 1 92.62 60.24zm48.006 34.437c-1.037 1.626-3.757 1.276-7.514-.514-5.872-3.19-12.542-7.904-19.237-13.444a349.907 349.907 0 0 0 3.317-3.234q4.852-4.796 9.285-9.538c20.062 22.828 14.149 26.73 14.149 26.73Z"/><path fill="url(#f)" d="M167.641 2.986c-.704 12.973-15.662 37.802-41.16 64.964q-3.412 3.633-7.071 7.313a278.67 278.67 0 0 1-2.215 2.214c-4.223 4.176-7.986 7.682-11.343 10.63a346.674 346.674 0 0 1-8.043-7.712c-.856-.848-1.713-1.696-2.571-2.565-.761-.77-1.485-1.514-2.202-2.254a202.01 202.01 0 0 1 12.915-14.145 192.09 192.09 0 0 1 6.382 6.22 197.21 197.21 0 0 0 6.797-7.659 246.932 246.932 0 0 0-3.243-3.317c-.794-.803-1.582-1.57-2.374-2.356 6.859-6.104 13.792-11.302 20.01-14.692 1.788-3.757 2.138-6.469.513-7.514 0 0-4.031-6.104-27.848 15.147q-3.552-3.33-7.05-6.428l.015-.015C74.81 19.287 53.123 6.814 41.304 6.24c-3.371 3.593-6.574 16.587 32.968 60.477q2.633-2.944 5.463-6.012c-14.1-17.662-9.229-20.874-9.229-20.874 1.037-1.635 3.75-1.283 7.506.504 6.168 3.36 13.193 8.37 20.195 14.24l.069.057c-.739.717-1.49 1.45-2.258 2.21Q90.53 62.265 85.584 67.6q-1.343 1.451-2.648 2.88c-23.23 25.583-36.745 48.617-37.352 60.933 3.585 3.363 16.513 6.552 60.087-32.613.973.91 1.937 1.804 2.88 2.667l.085.076c.622.577 1.244 1.139 1.866 1.694l.25.226.352.318c40.267 36.077 53.091 29.558 58.621 24.503-11.055-.601-30.726-11.561-53.108-30.568q-2.057-1.746-4.147-3.583l-.651-.576-.207-.189a608.74 608.74 0 0 0 6.081-5.725 633.207 633.207 0 0 0 6.635-6.427c3.525 4.478 6.548 8.874 8.775 12.956 3.757 1.79 6.469 2.14 7.514.515 0 0 4.833-3.195-9.088-20.69C180.5 23.866 173.184 9.052 167.64 2.985Zm-88.457 99.23c-1.636-1.037-1.284-3.75.503-7.506 2.217-4.069 5.149-8.501 8.572-13.063q1.96 2.022 3.863 3.952l.197.207.23.235q3.732 3.777 7.238 7.178c-17.425 13.823-20.603 8.996-20.603 8.996Z"/></svg>
