<svg version="1.0" width="292.104" height="292.244" viewBox="0 0 219.078 219.183" xmlns="http://www.w3.org/2000/svg"><path d="M94.595.725C46.122 8.407 9.767 44.005 1.543 91.504c-8.114 47.5 16.339 95.107 59.943 116.53 46.742 23.047 103.871 9.414 135.25-32.135 27.157-36.138 29.754-83.746 6.708-122.914-14.066-23.804-39.385-42.63-66.76-49.555C124.459.292 105.2-.898 94.596.725zm29.647 58.103c7.682 2.055 11.902 4.328 11.902 6.275 0 2.489-1.299 2.597-7.574.866-13.742-3.679-30.404.865-40.575 11.036-5.843 5.843-10.928 16.014-11.902 24.129l-.758 5.734 6.384-2.813C123.81 85.336 177.043 70.73 190.027 74.3c3.787.974 4.544 1.623 4.544 3.787 0 3.03-4.977 8.331-12.443 13.525-7.79 5.41-17.96 10.82-18.935 10.279-.54-.325-1.73-3.246-2.705-6.492-.865-3.246-2.164-5.95-2.705-5.95-1.73 0-26.292 7.681-38.951 12.117-10.712 3.787-39.71 15.581-41.008 16.663-1.298 1.19 4.22 11.145 9.089 16.446 6.708 7.358 14.607 11.686 24.236 13.309 15.798 2.813 33.867-5.518 41.982-19.26 2.705-4.652 5.302-5.95 6.384-3.137 1.082 2.813-6.276 15.04-13.093 21.856-9.088 9.197-23.803 15.58-35.814 15.58-7.357 0-20.341-3.895-33.758-10.278-15.58-7.25-20.99-8.332-36.571-7.466-11.361.65-12.118.65-14.39-1.623-2.273-2.272-2.273-2.489-.542-5.302.974-1.623 5.843-6.275 10.929-10.387 9.846-8.007 14.498-14.174 18.718-24.994 7.574-19.476 15.04-30.62 24.994-37.22 13.417-8.981 28.348-11.362 44.254-6.925z"/></svg>